<svg width="15" height="15" viewBox="0 0 15 15" fill="none" xmlns="http://www.w3.org/2000/svg">
<path fill-rule="evenodd" clip-rule="evenodd" d="M7.5 2.5C6.11875 2.5 5 3.61875 5 5C5 6.38125 6.11875 7.5 7.5 7.5C8.88125 7.5 10 6.38125 10 5C10 3.61875 8.88125 2.5 7.5 2.5ZM8.81254 4.99999C8.81254 4.27499 8.22504 3.68749 7.50004 3.68749C6.77504 3.68749 6.18754 4.27499 6.18754 4.99999C6.18754 5.72499 6.77504 6.31249 7.50004 6.31249C8.22504 6.31249 8.81254 5.72499 8.81254 4.99999ZM11.3125 10.625C11.3125 10.225 9.35629 9.31249 7.50004 9.31249C5.64379 9.31249 3.68754 10.225 3.68754 10.625V11.3125H11.3125V10.625ZM2.5 10.625C2.5 8.9625 5.83125 8.125 7.5 8.125C9.16875 8.125 12.5 8.9625 12.5 10.625V11.875C12.5 12.2188 12.2188 12.5 11.875 12.5H3.125C2.78125 12.5 2.5 12.2188 2.5 11.875V10.625Z" fill="#1B1B1B" fill-opacity="0.6"/>
</svg>
