<svg width="16" height="15" viewBox="0 0 16 15" fill="none" xmlns="http://www.w3.org/2000/svg">
<path fill-rule="evenodd" clip-rule="evenodd" d="M9.87236 5.54668L13.099 5.80918C13.6857 5.85293 13.919 6.54043 13.4724 6.90293L11.0257 8.89043L11.759 11.8467C11.8924 12.3842 11.2724 12.8092 10.7657 12.5217L7.99903 10.9529L5.23236 12.5154C4.72569 12.8029 4.10569 12.3779 4.23903 11.8404L4.97236 8.89043L2.52569 6.90293C2.07903 6.54043 2.31903 5.85293 2.90569 5.80918L6.12569 5.55293L7.38569 2.76543C7.61236 2.25918 8.38569 2.25918 8.61236 2.76543L9.87236 5.54668ZM7.99903 3.97168V9.78418L10.5124 11.2092L9.84569 8.53418L12.059 6.73418L9.13903 6.49668L7.99903 3.97168Z" fill="#FFD130"/>
</svg>
